<svg width="317" height="300" viewBox="0 0 317 300" fill="none" xmlns="http://www.w3.org/2000/svg">
<g clip-path="url(#clip0_308_101)">
<rect width="317" height="300" rx="21" fill="url(#paint0_linear_308_101)"/>
<path d="M95.405 231.516C134.479 223.684 185 195.575 185 122.89C185 56.745 136.584 12.6991 101.769 -7.53938C94.0438 -12.0304 85 -6.12425 85 2.8115V25.6675C85 43.6907 77.4225 76.5889 56.3665 90.2725C45.6165 97.2587 34.0065 86.8025 32.7 74.0485L31.6271 63.5755C30.38 51.4004 17.9801 44.0094 8.2495 51.4325C-9.23162 64.768 -27.5 88.12 -27.5 122.89C-27.5 211.779 38.6111 234.001 71.6663 234.001C73.5888 234.001 75.61 233.944 77.7138 233.822C61.3913 232.427 35 222.3 35 189.552C35 163.936 53.6884 146.606 67.8875 138.182C71.7062 135.916 76.1762 138.859 76.1762 143.299V150.664C76.1762 156.3 78.3563 165.111 83.545 171.142C89.4175 177.967 98.0363 170.817 98.7313 161.841C98.9513 159.01 101.799 157.205 104.251 158.639C112.268 163.324 122.5 173.331 122.5 189.552C122.5 215.152 108.387 226.929 95.405 231.516Z" fill="white" fill-opacity="0.09"/>
<path d="M57.12 167.72C57.12 169.213 56.76 170.613 56.04 171.92C55.3467 173.227 54.24 174.28 52.72 175.08C51.2267 175.88 49.3333 176.28 47.04 176.28H42.36V187H36.76V159.08H47.04C49.2 159.08 51.04 159.453 52.56 160.2C54.08 160.947 55.2133 161.973 55.96 163.28C56.7333 164.587 57.12 166.067 57.12 167.72ZM46.8 171.76C48.3467 171.76 49.4933 171.413 50.24 170.72C50.9867 170 51.36 169 51.36 167.72C51.36 165 49.84 163.64 46.8 163.64H42.36V171.76H46.8ZM70.9359 187.36C68.8026 187.36 66.8826 186.893 65.1759 185.96C63.4693 185 62.1226 183.653 61.1359 181.92C60.1759 180.187 59.6959 178.187 59.6959 175.92C59.6959 173.653 60.1893 171.653 61.1759 169.92C62.1893 168.187 63.5626 166.853 65.2959 165.92C67.0293 164.96 68.9626 164.48 71.0959 164.48C73.2293 164.48 75.1626 164.96 76.8959 165.92C78.6293 166.853 79.9893 168.187 80.9759 169.92C81.9893 171.653 82.4959 173.653 82.4959 175.92C82.4959 178.187 81.9759 180.187 80.9359 181.92C79.9226 183.653 78.5359 185 76.7759 185.96C75.0426 186.893 73.0959 187.36 70.9359 187.36ZM70.9359 182.48C71.9493 182.48 72.8959 182.24 73.7759 181.76C74.6826 181.253 75.4026 180.507 75.9359 179.52C76.4693 178.533 76.7359 177.333 76.7359 175.92C76.7359 173.813 76.1759 172.2 75.0559 171.08C73.9626 169.933 72.6159 169.36 71.0159 169.36C69.4159 169.36 68.0693 169.933 66.9759 171.08C65.9093 172.2 65.3759 173.813 65.3759 175.92C65.3759 178.027 65.8959 179.653 66.9359 180.8C68.0026 181.92 69.3359 182.48 70.9359 182.48ZM92.2038 168.04C92.9238 167.027 93.9104 166.187 95.1638 165.52C96.4438 164.827 97.8971 164.48 99.5238 164.48C101.417 164.48 103.124 164.947 104.644 165.88C106.19 166.813 107.404 168.147 108.284 169.88C109.19 171.587 109.644 173.573 109.644 175.84C109.644 178.107 109.19 180.12 108.284 181.88C107.404 183.613 106.19 184.96 104.644 185.92C103.124 186.88 101.417 187.36 99.5238 187.36C97.8971 187.36 96.4571 187.027 95.2038 186.36C93.9771 185.693 92.9771 184.853 92.2038 183.84V197.56H86.6038V164.84H92.2038V168.04ZM103.924 175.84C103.924 174.507 103.644 173.36 103.084 172.4C102.55 171.413 101.83 170.667 100.924 170.16C100.044 169.653 99.0838 169.4 98.0438 169.4C97.0304 169.4 96.0704 169.667 95.1638 170.2C94.2838 170.707 93.5638 171.453 93.0038 172.44C92.4704 173.427 92.2038 174.587 92.2038 175.92C92.2038 177.253 92.4704 178.413 93.0038 179.4C93.5638 180.387 94.2838 181.147 95.1638 181.68C96.0704 182.187 97.0304 182.44 98.0438 182.44C99.0838 182.44 100.044 182.173 100.924 181.64C101.83 181.107 102.55 180.347 103.084 179.36C103.644 178.373 103.924 177.2 103.924 175.84ZM134.633 164.84V187H128.993V184.2C128.273 185.16 127.326 185.92 126.153 186.48C125.006 187.013 123.753 187.28 122.393 187.28C120.66 187.28 119.126 186.92 117.793 186.2C116.46 185.453 115.406 184.373 114.633 182.96C113.886 181.52 113.513 179.813 113.513 177.84V164.84H119.113V177.04C119.113 178.8 119.553 180.16 120.433 181.12C121.313 182.053 122.513 182.52 124.033 182.52C125.58 182.52 126.793 182.053 127.673 181.12C128.553 180.16 128.993 178.8 128.993 177.04V164.84H134.633ZM145.758 157.4V187H140.158V157.4H145.758ZM149.851 175.84C149.851 173.6 150.291 171.613 151.171 169.88C152.078 168.147 153.291 166.813 154.811 165.88C156.358 164.947 158.078 164.48 159.971 164.48C161.625 164.48 163.065 164.813 164.291 165.48C165.545 166.147 166.545 166.987 167.291 168V164.84H172.931V187H167.291V183.76C166.571 184.8 165.571 185.667 164.291 186.36C163.038 187.027 161.585 187.36 159.931 187.36C158.065 187.36 156.358 186.88 154.811 185.92C153.291 184.96 152.078 183.613 151.171 181.88C150.291 180.12 149.851 178.107 149.851 175.84ZM167.291 175.92C167.291 174.56 167.025 173.4 166.491 172.44C165.958 171.453 165.238 170.707 164.331 170.2C163.425 169.667 162.451 169.4 161.411 169.4C160.371 169.4 159.411 169.653 158.531 170.16C157.651 170.667 156.931 171.413 156.371 172.4C155.838 173.36 155.571 174.507 155.571 175.84C155.571 177.173 155.838 178.347 156.371 179.36C156.931 180.347 157.651 181.107 158.531 181.64C159.438 182.173 160.398 182.44 161.411 182.44C162.451 182.44 163.425 182.187 164.331 181.68C165.238 181.147 165.958 180.4 166.491 179.44C167.025 178.453 167.291 177.28 167.291 175.92ZM184.001 168.28C184.721 167.107 185.654 166.187 186.801 165.52C187.974 164.853 189.307 164.52 190.801 164.52V170.4H189.321C187.561 170.4 186.227 170.813 185.321 171.64C184.441 172.467 184.001 173.907 184.001 175.96V187H178.401V164.84H184.001V168.28ZM46.4 240.28C44.4533 240.28 42.6933 239.947 41.12 239.28C39.5733 238.613 38.3467 237.653 37.44 236.4C36.5333 235.147 36.0667 233.667 36.04 231.96H42.04C42.12 233.107 42.52 234.013 43.24 234.68C43.9867 235.347 45 235.68 46.28 235.68C47.5867 235.68 48.6133 235.373 49.36 234.76C50.1067 234.12 50.48 233.293 50.48 232.28C50.48 231.453 50.2267 230.773 49.72 230.24C49.2133 229.707 48.5733 229.293 47.8 229C47.0533 228.68 46.0133 228.333 44.68 227.96C42.8667 227.427 41.3867 226.907 40.24 226.4C39.12 225.867 38.1467 225.08 37.32 224.04C36.52 222.973 36.12 221.56 36.12 219.8C36.12 218.147 36.5333 216.707 37.36 215.48C38.1867 214.253 39.3467 213.32 40.84 212.68C42.3333 212.013 44.04 211.68 45.96 211.68C48.84 211.68 51.1733 212.387 52.96 213.8C54.7733 215.187 55.7733 217.133 55.96 219.64H49.8C49.7467 218.68 49.3333 217.893 48.56 217.28C47.8133 216.64 46.8133 216.32 45.56 216.32C44.4667 216.32 43.5867 216.6 42.92 217.16C42.28 217.72 41.96 218.533 41.96 219.6C41.96 220.347 42.2 220.973 42.68 221.48C43.1867 221.96 43.8 222.36 44.52 222.68C45.2667 222.973 46.3067 223.32 47.64 223.72C49.4533 224.253 50.9333 224.787 52.08 225.32C53.2267 225.853 54.2133 226.653 55.04 227.72C55.8667 228.787 56.28 230.187 56.28 231.92C56.28 233.413 55.8933 234.8 55.12 236.08C54.3467 237.36 53.2133 238.387 51.72 239.16C50.2267 239.907 48.4533 240.28 46.4 240.28ZM70.975 240.36C68.8417 240.36 66.9217 239.893 65.215 238.96C63.5083 238 62.1617 236.653 61.175 234.92C60.215 233.187 59.735 231.187 59.735 228.92C59.735 226.653 60.2283 224.653 61.215 222.92C62.2283 221.187 63.6017 219.853 65.335 218.92C67.0683 217.96 69.0017 217.48 71.135 217.48C73.2683 217.48 75.2017 217.96 76.935 218.92C78.6683 219.853 80.0283 221.187 81.015 222.92C82.0283 224.653 82.535 226.653 82.535 228.92C82.535 231.187 82.015 233.187 80.975 234.92C79.9617 236.653 78.575 238 76.815 238.96C75.0817 239.893 73.135 240.36 70.975 240.36ZM70.975 235.48C71.9883 235.48 72.935 235.24 73.815 234.76C74.7217 234.253 75.4417 233.507 75.975 232.52C76.5083 231.533 76.775 230.333 76.775 228.92C76.775 226.813 76.215 225.2 75.095 224.08C74.0017 222.933 72.655 222.36 71.055 222.36C69.455 222.36 68.1083 222.933 67.015 224.08C65.9483 225.2 65.415 226.813 65.415 228.92C65.415 231.027 65.935 232.653 66.975 233.8C68.0417 234.92 69.375 235.48 70.975 235.48ZM98.9228 217.52C101.563 217.52 103.696 218.36 105.323 220.04C106.949 221.693 107.763 224.013 107.763 227V240H102.163V227.76C102.163 226 101.723 224.653 100.843 223.72C99.9628 222.76 98.7628 222.28 97.2428 222.28C95.6961 222.28 94.4695 222.76 93.5628 223.72C92.6828 224.653 92.2428 226 92.2428 227.76V240H86.6428V217.84H92.2428V220.6C92.9895 219.64 93.9361 218.893 95.0828 218.36C96.2561 217.8 97.5361 217.52 98.9228 217.52ZM121.768 217.48C123.421 217.48 124.875 217.813 126.128 218.48C127.381 219.12 128.368 219.96 129.088 221V217.84H134.728V240.16C134.728 242.213 134.315 244.04 133.488 245.64C132.661 247.267 131.421 248.547 129.768 249.48C128.115 250.44 126.115 250.92 123.768 250.92C120.621 250.92 118.035 250.187 116.008 248.72C114.008 247.253 112.875 245.253 112.608 242.72H118.168C118.461 243.733 119.088 244.533 120.048 245.12C121.035 245.733 122.221 246.04 123.608 246.04C125.235 246.04 126.555 245.547 127.568 244.56C128.581 243.6 129.088 242.133 129.088 240.16V236.72C128.368 237.76 127.368 238.627 126.088 239.32C124.835 240.013 123.395 240.36 121.768 240.36C119.901 240.36 118.195 239.88 116.648 238.92C115.101 237.96 113.875 236.613 112.968 234.88C112.088 233.12 111.648 231.107 111.648 228.84C111.648 226.6 112.088 224.613 112.968 222.88C113.875 221.147 115.088 219.813 116.608 218.88C118.155 217.947 119.875 217.48 121.768 217.48ZM129.088 228.92C129.088 227.56 128.821 226.4 128.288 225.44C127.755 224.453 127.035 223.707 126.128 223.2C125.221 222.667 124.248 222.4 123.208 222.4C122.168 222.4 121.208 222.653 120.328 223.16C119.448 223.667 118.728 224.413 118.168 225.4C117.635 226.36 117.368 227.507 117.368 228.84C117.368 230.173 117.635 231.347 118.168 232.36C118.728 233.347 119.448 234.107 120.328 234.64C121.235 235.173 122.195 235.44 123.208 235.44C124.248 235.44 125.221 235.187 126.128 234.68C127.035 234.147 127.755 233.4 128.288 232.44C128.821 231.453 129.088 230.28 129.088 228.92ZM148.678 240.36C146.864 240.36 145.238 240.04 143.798 239.4C142.358 238.733 141.211 237.84 140.358 236.72C139.531 235.6 139.078 234.36 138.998 233H144.638C144.744 233.853 145.158 234.56 145.878 235.12C146.624 235.68 147.544 235.96 148.638 235.96C149.704 235.96 150.531 235.747 151.118 235.32C151.731 234.893 152.038 234.347 152.038 233.68C152.038 232.96 151.664 232.427 150.918 232.08C150.198 231.707 149.038 231.307 147.438 230.88C145.784 230.48 144.424 230.067 143.358 229.64C142.318 229.213 141.411 228.56 140.638 227.68C139.891 226.8 139.518 225.613 139.518 224.12C139.518 222.893 139.864 221.773 140.558 220.76C141.278 219.747 142.291 218.947 143.598 218.36C144.931 217.773 146.491 217.48 148.278 217.48C150.918 217.48 153.024 218.147 154.598 219.48C156.171 220.787 157.038 222.56 157.198 224.8H151.838C151.758 223.92 151.384 223.227 150.718 222.72C150.078 222.187 149.211 221.92 148.118 221.92C147.104 221.92 146.318 222.107 145.758 222.48C145.224 222.853 144.958 223.373 144.958 224.04C144.958 224.787 145.331 225.36 146.078 225.76C146.824 226.133 147.984 226.52 149.558 226.92C151.158 227.32 152.478 227.733 153.518 228.16C154.558 228.587 155.451 229.253 156.198 230.16C156.971 231.04 157.371 232.213 157.398 233.68C157.398 234.96 157.038 236.107 156.318 237.12C155.624 238.133 154.611 238.933 153.278 239.52C151.971 240.08 150.438 240.36 148.678 240.36Z" fill="white"/>
</g>
<defs>
<linearGradient id="paint0_linear_308_101" x1="136" y1="23.5" x2="286" y2="300" gradientUnits="userSpaceOnUse">
<stop stop-color="#864ED0"/>
<stop offset="1" stop-color="#570F62"/>
</linearGradient>
<clipPath id="clip0_308_101">
<rect width="317" height="300" fill="white"/>
</clipPath>
</defs>
</svg>
