<svg width="317" height="300" viewBox="0 0 317 300" fill="none" xmlns="http://www.w3.org/2000/svg">
<g clip-path="url(#clip0_308_119)">
<rect width="317" height="300" rx="21" fill="url(#paint0_linear_308_119)"/>
<path d="M204.5 124C204.5 199.939 142.939 261.5 67 261.5C-8.93913 261.5 -70.5 199.939 -70.5 124C-70.5 48.0609 -8.93913 -13.5 67 -13.5C142.939 -13.5 204.5 48.0609 204.5 124ZM-45.4146 124C-45.4146 186.085 4.91512 236.415 67 236.415C129.085 236.415 179.415 186.085 179.415 124C179.415 61.9151 129.085 11.5854 67 11.5854C4.91512 11.5854 -45.4146 61.9151 -45.4146 124Z" fill="white" fill-opacity="0.09"/>
<path d="M67 36.5C60.0963 36.5 54.5 42.0964 54.5 49V129.834C54.5 129.834 54.5 133.092 56.0838 135.544C57.1438 137.622 58.7962 139.429 60.9675 140.682L118.715 174.024C124.694 177.475 132.339 175.426 135.79 169.447C139.241 163.469 137.194 155.824 131.215 152.372L79.5 122.515V49C79.5 42.0965 73.9037 36.5 67 36.5Z" fill="white" fill-opacity="0.09"/>
<path d="M51.16 187L45 176.12H42.36V187H36.76V159.08H47.24C49.4 159.08 51.24 159.467 52.76 160.24C54.28 160.987 55.4133 162.013 56.16 163.32C56.9333 164.6 57.32 166.04 57.32 167.64C57.32 169.48 56.7867 171.147 55.72 172.64C54.6533 174.107 53.0667 175.12 50.96 175.68L57.64 187H51.16ZM42.36 171.92H47.04C48.56 171.92 49.6933 171.56 50.44 170.84C51.1867 170.093 51.56 169.067 51.56 167.76C51.56 166.48 51.1867 165.493 50.44 164.8C49.6933 164.08 48.56 163.72 47.04 163.72H42.36V171.92ZM82.985 175.44C82.985 176.24 82.9317 176.96 82.825 177.6H66.625C66.7583 179.2 67.3183 180.453 68.305 181.36C69.2917 182.267 70.505 182.72 71.945 182.72C74.025 182.72 75.505 181.827 76.385 180.04H82.425C81.785 182.173 80.5583 183.933 78.745 185.32C76.9317 186.68 74.705 187.36 72.065 187.36C69.9317 187.36 68.0117 186.893 66.305 185.96C64.625 185 63.305 183.653 62.345 181.92C61.4117 180.187 60.945 178.187 60.945 175.92C60.945 173.627 61.4117 171.613 62.345 169.88C63.2783 168.147 64.585 166.813 66.265 165.88C67.945 164.947 69.8783 164.48 72.065 164.48C74.1717 164.48 76.0517 164.933 77.705 165.84C79.385 166.747 80.6783 168.04 81.585 169.72C82.5183 171.373 82.985 173.28 82.985 175.44ZM77.185 173.84C77.1583 172.4 76.6383 171.253 75.625 170.4C74.6117 169.52 73.3717 169.08 71.905 169.08C70.5183 169.08 69.345 169.507 68.385 170.36C67.4517 171.187 66.8783 172.347 66.665 173.84H77.185ZM85.6325 175.92C85.6325 173.627 86.0992 171.627 87.0325 169.92C87.9658 168.187 89.2592 166.853 90.9125 165.92C92.5658 164.96 94.4592 164.48 96.5925 164.48C99.3392 164.48 101.606 165.173 103.393 166.56C105.206 167.92 106.419 169.84 107.033 172.32H100.993C100.673 171.36 100.126 170.613 99.3525 170.08C98.6058 169.52 97.6725 169.24 96.5525 169.24C94.9525 169.24 93.6858 169.827 92.7525 171C91.8192 172.147 91.3525 173.787 91.3525 175.92C91.3525 178.027 91.8192 179.667 92.7525 180.84C93.6858 181.987 94.9525 182.56 96.5525 182.56C98.8192 182.56 100.299 181.547 100.993 179.52H107.033C106.419 181.92 105.206 183.827 103.393 185.24C101.579 186.653 99.3125 187.36 96.5925 187.36C94.4592 187.36 92.5658 186.893 90.9125 185.96C89.2592 185 87.9658 183.667 87.0325 181.96C86.0992 180.227 85.6325 178.213 85.6325 175.92ZM131.735 175.44C131.735 176.24 131.682 176.96 131.575 177.6H115.375C115.508 179.2 116.068 180.453 117.055 181.36C118.042 182.267 119.255 182.72 120.695 182.72C122.775 182.72 124.255 181.827 125.135 180.04H131.175C130.535 182.173 129.308 183.933 127.495 185.32C125.682 186.68 123.455 187.36 120.815 187.36C118.682 187.36 116.762 186.893 115.055 185.96C113.375 185 112.055 183.653 111.095 181.92C110.162 180.187 109.695 178.187 109.695 175.92C109.695 173.627 110.162 171.613 111.095 169.88C112.028 168.147 113.335 166.813 115.015 165.88C116.695 164.947 118.628 164.48 120.815 164.48C122.922 164.48 124.802 164.933 126.455 165.84C128.135 166.747 129.428 168.04 130.335 169.72C131.268 171.373 131.735 173.28 131.735 175.44ZM125.935 173.84C125.908 172.4 125.388 171.253 124.375 170.4C123.362 169.52 122.122 169.08 120.655 169.08C119.268 169.08 118.095 169.507 117.135 170.36C116.202 171.187 115.628 172.347 115.415 173.84H125.935ZM148.103 164.52C150.743 164.52 152.876 165.36 154.503 167.04C156.129 168.693 156.943 171.013 156.943 174V187H151.343V174.76C151.343 173 150.903 171.653 150.023 170.72C149.143 169.76 147.943 169.28 146.423 169.28C144.876 169.28 143.649 169.76 142.743 170.72C141.863 171.653 141.423 173 141.423 174.76V187H135.823V164.84H141.423V167.6C142.169 166.64 143.116 165.893 144.263 165.36C145.436 164.8 146.716 164.52 148.103 164.52ZM168.788 169.44V180.16C168.788 180.907 168.961 181.453 169.308 181.8C169.681 182.12 170.294 182.28 171.148 182.28H173.748V187H170.228C165.508 187 163.148 184.707 163.148 180.12V169.44H160.508V164.84H163.148V159.36H168.788V164.84H173.748V169.44H168.788ZM183.376 157.4V187H177.776V157.4H183.376ZM210.108 164.84L196.388 197.48H190.428L195.228 186.44L186.348 164.84H192.628L198.348 180.32L204.148 164.84H210.108ZM61.84 212.08L51.6 240H44.8L34.56 212.08H40.56L48.24 234.28L55.88 212.08H61.84ZM68.0375 215.2C67.0508 215.2 66.2242 214.893 65.5575 214.28C64.9175 213.64 64.5975 212.853 64.5975 211.92C64.5975 210.987 64.9175 210.213 65.5575 209.6C66.2242 208.96 67.0508 208.64 68.0375 208.64C69.0242 208.64 69.8375 208.96 70.4775 209.6C71.1442 210.213 71.4775 210.987 71.4775 211.92C71.4775 212.853 71.1442 213.64 70.4775 214.28C69.8375 214.893 69.0242 215.2 68.0375 215.2ZM70.7975 217.84V240H65.1975V217.84H70.7975ZM96.9303 228.44C96.9303 229.24 96.877 229.96 96.7703 230.6H80.5703C80.7036 232.2 81.2636 233.453 82.2503 234.36C83.237 235.267 84.4503 235.72 85.8903 235.72C87.9703 235.72 89.4503 234.827 90.3303 233.04H96.3703C95.7303 235.173 94.5036 236.933 92.6903 238.32C90.877 239.68 88.6503 240.36 86.0103 240.36C83.877 240.36 81.957 239.893 80.2503 238.96C78.5703 238 77.2503 236.653 76.2903 234.92C75.357 233.187 74.8903 231.187 74.8903 228.92C74.8903 226.627 75.357 224.613 76.2903 222.88C77.2236 221.147 78.5303 219.813 80.2103 218.88C81.8903 217.947 83.8236 217.48 86.0103 217.48C88.117 217.48 89.997 217.933 91.6503 218.84C93.3303 219.747 94.6236 221.04 95.5303 222.72C96.4636 224.373 96.9303 226.28 96.9303 228.44ZM91.1303 226.84C91.1036 225.4 90.5836 224.253 89.5703 223.4C88.557 222.52 87.317 222.08 85.8503 222.08C84.4636 222.08 83.2903 222.507 82.3303 223.36C81.397 224.187 80.8236 225.347 80.6103 226.84H91.1303ZM131.738 217.84L125.258 240H119.218L115.178 224.52L111.138 240H105.058L98.5378 217.84H104.218L108.138 234.72L112.378 217.84H118.298L122.458 234.68L126.378 217.84H131.738ZM155.368 228.44C155.368 229.24 155.314 229.96 155.208 230.6H139.008C139.141 232.2 139.701 233.453 140.688 234.36C141.674 235.267 142.888 235.72 144.328 235.72C146.408 235.72 147.888 234.827 148.768 233.04H154.808C154.168 235.173 152.941 236.933 151.128 238.32C149.314 239.68 147.088 240.36 144.448 240.36C142.314 240.36 140.394 239.893 138.688 238.96C137.008 238 135.688 236.653 134.728 234.92C133.794 233.187 133.328 231.187 133.328 228.92C133.328 226.627 133.794 224.613 134.728 222.88C135.661 221.147 136.968 219.813 138.648 218.88C140.328 217.947 142.261 217.48 144.448 217.48C146.554 217.48 148.434 217.933 150.088 218.84C151.768 219.747 153.061 221.04 153.968 222.72C154.901 224.373 155.368 226.28 155.368 228.44ZM149.568 226.84C149.541 225.4 149.021 224.253 148.008 223.4C146.994 222.52 145.754 222.08 144.288 222.08C142.901 222.08 141.728 222.507 140.768 223.36C139.834 224.187 139.261 225.347 139.048 226.84H149.568ZM158.015 228.84C158.015 226.6 158.455 224.613 159.335 222.88C160.242 221.147 161.469 219.813 163.015 218.88C164.562 217.947 166.282 217.48 168.175 217.48C169.615 217.48 170.989 217.8 172.295 218.44C173.602 219.053 174.642 219.88 175.415 220.92V210.4H181.095V240H175.415V236.72C174.722 237.813 173.749 238.693 172.495 239.36C171.242 240.027 169.789 240.36 168.135 240.36C166.269 240.36 164.562 239.88 163.015 238.92C161.469 237.96 160.242 236.613 159.335 234.88C158.455 233.12 158.015 231.107 158.015 228.84ZM175.455 228.92C175.455 227.56 175.189 226.4 174.655 225.44C174.122 224.453 173.402 223.707 172.495 223.2C171.589 222.667 170.615 222.4 169.575 222.4C168.535 222.4 167.575 222.653 166.695 223.16C165.815 223.667 165.095 224.413 164.535 225.4C164.002 226.36 163.735 227.507 163.735 228.84C163.735 230.173 164.002 231.347 164.535 232.36C165.095 233.347 165.815 234.107 166.695 234.64C167.602 235.173 168.562 235.44 169.575 235.44C170.615 235.44 171.589 235.187 172.495 234.68C173.402 234.147 174.122 233.4 174.655 232.44C175.189 231.453 175.455 230.28 175.455 228.92Z" fill="white"/>
</g>
<defs>
<linearGradient id="paint0_linear_308_119" x1="136" y1="23.5" x2="286" y2="300" gradientUnits="userSpaceOnUse">
<stop stop-color="#25D293"/>
<stop offset="1" stop-color="#0E474A"/>
</linearGradient>
<clipPath id="clip0_308_119">
<rect width="317" height="300" fill="white"/>
</clipPath>
</defs>
</svg>
