<svg width="317" height="300" viewBox="0 0 317 300" fill="none" xmlns="http://www.w3.org/2000/svg">
<g clip-path="url(#clip0_308_108)">
<rect width="317" height="300" rx="21" fill="url(#paint0_linear_308_108)"/>
<path d="M95.405 231.516C134.479 223.684 185 195.575 185 122.89C185 56.745 136.584 12.6991 101.769 -7.53938C94.0438 -12.0304 85 -6.12425 85 2.8115V25.6675C85 43.6907 77.4225 76.5889 56.3665 90.2725C45.6165 97.2587 34.0065 86.8025 32.7 74.0485L31.6271 63.5755C30.38 51.4004 17.9801 44.0094 8.2495 51.4325C-9.23162 64.768 -27.5 88.12 -27.5 122.89C-27.5 211.779 38.6111 234.001 71.6663 234.001C73.5888 234.001 75.61 233.944 77.7138 233.822C61.3913 232.427 35 222.3 35 189.552C35 163.936 53.6884 146.606 67.8875 138.182C71.7062 135.916 76.1762 138.859 76.1762 143.299V150.664C76.1762 156.3 78.3563 165.111 83.545 171.142C89.4175 177.967 98.0363 170.817 98.7313 161.841C98.9513 159.01 101.799 157.205 104.251 158.639C112.268 163.324 122.5 173.331 122.5 189.552C122.5 215.152 108.387 226.929 95.405 231.516Z" fill="white" fill-opacity="0.09"/>
<path d="M55.76 159.08V163.6H48.32V187H42.72V163.6H35.28V159.08H55.76ZM65.4459 168.28C66.1659 167.107 67.0993 166.187 68.2459 165.52C69.4193 164.853 70.7526 164.52 72.2459 164.52V170.4H70.7659C69.0059 170.4 67.6726 170.813 66.7659 171.64C65.8859 172.467 65.4459 173.907 65.4459 175.96V187H59.8459V164.84H65.4459V168.28ZM96.6178 175.44C96.6178 176.24 96.5645 176.96 96.4578 177.6H80.2578C80.3911 179.2 80.9511 180.453 81.9378 181.36C82.9245 182.267 84.1378 182.72 85.5778 182.72C87.6578 182.72 89.1378 181.827 90.0178 180.04H96.0578C95.4178 182.173 94.1911 183.933 92.3778 185.32C90.5645 186.68 88.3378 187.36 85.6978 187.36C83.5645 187.36 81.6445 186.893 79.9378 185.96C78.2578 185 76.9378 183.653 75.9778 181.92C75.0445 180.187 74.5778 178.187 74.5778 175.92C74.5778 173.627 75.0445 171.613 75.9778 169.88C76.9111 168.147 78.2178 166.813 79.8978 165.88C81.5778 164.947 83.5111 164.48 85.6978 164.48C87.8045 164.48 89.6845 164.933 91.3378 165.84C93.0178 166.747 94.3111 168.04 95.2178 169.72C96.1511 171.373 96.6178 173.28 96.6178 175.44ZM90.8178 173.84C90.7911 172.4 90.2711 171.253 89.2578 170.4C88.2445 169.52 87.0045 169.08 85.5378 169.08C84.1511 169.08 82.9778 169.507 82.0178 170.36C81.0845 171.187 80.5111 172.347 80.2978 173.84H90.8178ZM112.985 164.52C115.625 164.52 117.759 165.36 119.385 167.04C121.012 168.693 121.825 171.013 121.825 174V187H116.225V174.76C116.225 173 115.785 171.653 114.905 170.72C114.025 169.76 112.825 169.28 111.305 169.28C109.759 169.28 108.532 169.76 107.625 170.72C106.745 171.653 106.305 173 106.305 174.76V187H100.705V164.84H106.305V167.6C107.052 166.64 107.999 165.893 109.145 165.36C110.319 164.8 111.599 164.52 112.985 164.52ZM125.711 175.84C125.711 173.6 126.151 171.613 127.031 169.88C127.937 168.147 129.164 166.813 130.711 165.88C132.257 164.947 133.977 164.48 135.871 164.48C137.311 164.48 138.684 164.8 139.991 165.44C141.297 166.053 142.337 166.88 143.111 167.92V157.4H148.791V187H143.111V183.72C142.417 184.813 141.444 185.693 140.191 186.36C138.937 187.027 137.484 187.36 135.831 187.36C133.964 187.36 132.257 186.88 130.711 185.92C129.164 184.96 127.937 183.613 127.031 181.88C126.151 180.12 125.711 178.107 125.711 175.84ZM143.151 175.92C143.151 174.56 142.884 173.4 142.351 172.44C141.817 171.453 141.097 170.707 140.191 170.2C139.284 169.667 138.311 169.4 137.271 169.4C136.231 169.4 135.271 169.653 134.391 170.16C133.511 170.667 132.791 171.413 132.231 172.4C131.697 173.36 131.431 174.507 131.431 175.84C131.431 177.173 131.697 178.347 132.231 179.36C132.791 180.347 133.511 181.107 134.391 181.64C135.297 182.173 136.257 182.44 137.271 182.44C138.311 182.44 139.284 182.187 140.191 181.68C141.097 181.147 141.817 180.4 142.351 179.44C142.884 178.453 143.151 177.28 143.151 175.92ZM157.1 162.2C156.113 162.2 155.287 161.893 154.62 161.28C153.98 160.64 153.66 159.853 153.66 158.92C153.66 157.987 153.98 157.213 154.62 156.6C155.287 155.96 156.113 155.64 157.1 155.64C158.087 155.64 158.9 155.96 159.54 156.6C160.207 157.213 160.54 157.987 160.54 158.92C160.54 159.853 160.207 160.64 159.54 161.28C158.9 161.893 158.087 162.2 157.1 162.2ZM159.86 164.84V187H154.26V164.84H159.86ZM177.673 164.52C180.313 164.52 182.446 165.36 184.073 167.04C185.699 168.693 186.513 171.013 186.513 174V187H180.913V174.76C180.913 173 180.473 171.653 179.593 170.72C178.713 169.76 177.513 169.28 175.993 169.28C174.446 169.28 173.219 169.76 172.313 170.72C171.433 171.653 170.993 173 170.993 174.76V187H165.393V164.84H170.993V167.6C171.739 166.64 172.686 165.893 173.833 165.36C175.006 164.8 176.286 164.52 177.673 164.52ZM200.518 164.48C202.171 164.48 203.625 164.813 204.878 165.48C206.131 166.12 207.118 166.96 207.838 168V164.84H213.478V187.16C213.478 189.213 213.065 191.04 212.238 192.64C211.411 194.267 210.171 195.547 208.518 196.48C206.865 197.44 204.865 197.92 202.518 197.92C199.371 197.92 196.785 197.187 194.758 195.72C192.758 194.253 191.625 192.253 191.358 189.72H196.918C197.211 190.733 197.838 191.533 198.798 192.12C199.785 192.733 200.971 193.04 202.358 193.04C203.985 193.04 205.305 192.547 206.318 191.56C207.331 190.6 207.838 189.133 207.838 187.16V183.72C207.118 184.76 206.118 185.627 204.838 186.32C203.585 187.013 202.145 187.36 200.518 187.36C198.651 187.36 196.945 186.88 195.398 185.92C193.851 184.96 192.625 183.613 191.718 181.88C190.838 180.12 190.398 178.107 190.398 175.84C190.398 173.6 190.838 171.613 191.718 169.88C192.625 168.147 193.838 166.813 195.358 165.88C196.905 164.947 198.625 164.48 200.518 164.48ZM207.838 175.92C207.838 174.56 207.571 173.4 207.038 172.44C206.505 171.453 205.785 170.707 204.878 170.2C203.971 169.667 202.998 169.4 201.958 169.4C200.918 169.4 199.958 169.653 199.078 170.16C198.198 170.667 197.478 171.413 196.918 172.4C196.385 173.36 196.118 174.507 196.118 175.84C196.118 177.173 196.385 178.347 196.918 179.36C197.478 180.347 198.198 181.107 199.078 181.64C199.985 182.173 200.945 182.44 201.958 182.44C202.998 182.44 203.971 182.187 204.878 181.68C205.785 181.147 206.505 180.4 207.038 179.44C207.571 178.453 207.838 177.28 207.838 175.92ZM46.4 240.28C44.4533 240.28 42.6933 239.947 41.12 239.28C39.5733 238.613 38.3467 237.653 37.44 236.4C36.5333 235.147 36.0667 233.667 36.04 231.96H42.04C42.12 233.107 42.52 234.013 43.24 234.68C43.9867 235.347 45 235.68 46.28 235.68C47.5867 235.68 48.6133 235.373 49.36 234.76C50.1067 234.12 50.48 233.293 50.48 232.28C50.48 231.453 50.2267 230.773 49.72 230.24C49.2133 229.707 48.5733 229.293 47.8 229C47.0533 228.68 46.0133 228.333 44.68 227.96C42.8667 227.427 41.3867 226.907 40.24 226.4C39.12 225.867 38.1467 225.08 37.32 224.04C36.52 222.973 36.12 221.56 36.12 219.8C36.12 218.147 36.5333 216.707 37.36 215.48C38.1867 214.253 39.3467 213.32 40.84 212.68C42.3333 212.013 44.04 211.68 45.96 211.68C48.84 211.68 51.1733 212.387 52.96 213.8C54.7733 215.187 55.7733 217.133 55.96 219.64H49.8C49.7467 218.68 49.3333 217.893 48.56 217.28C47.8133 216.64 46.8133 216.32 45.56 216.32C44.4667 216.32 43.5867 216.6 42.92 217.16C42.28 217.72 41.96 218.533 41.96 219.6C41.96 220.347 42.2 220.973 42.68 221.48C43.1867 221.96 43.8 222.36 44.52 222.68C45.2667 222.973 46.3067 223.32 47.64 223.72C49.4533 224.253 50.9333 224.787 52.08 225.32C53.2267 225.853 54.2133 226.653 55.04 227.72C55.8667 228.787 56.28 230.187 56.28 231.92C56.28 233.413 55.8933 234.8 55.12 236.08C54.3467 237.36 53.2133 238.387 51.72 239.16C50.2267 239.907 48.4533 240.28 46.4 240.28ZM70.975 240.36C68.8417 240.36 66.9217 239.893 65.215 238.96C63.5083 238 62.1617 236.653 61.175 234.92C60.215 233.187 59.735 231.187 59.735 228.92C59.735 226.653 60.2283 224.653 61.215 222.92C62.2283 221.187 63.6017 219.853 65.335 218.92C67.0683 217.96 69.0017 217.48 71.135 217.48C73.2683 217.48 75.2017 217.96 76.935 218.92C78.6683 219.853 80.0283 221.187 81.015 222.92C82.0283 224.653 82.535 226.653 82.535 228.92C82.535 231.187 82.015 233.187 80.975 234.92C79.9617 236.653 78.575 238 76.815 238.96C75.0817 239.893 73.135 240.36 70.975 240.36ZM70.975 235.48C71.9883 235.48 72.935 235.24 73.815 234.76C74.7217 234.253 75.4417 233.507 75.975 232.52C76.5083 231.533 76.775 230.333 76.775 228.92C76.775 226.813 76.215 225.2 75.095 224.08C74.0017 222.933 72.655 222.36 71.055 222.36C69.455 222.36 68.1083 222.933 67.015 224.08C65.9483 225.2 65.415 226.813 65.415 228.92C65.415 231.027 65.935 232.653 66.975 233.8C68.0417 234.92 69.375 235.48 70.975 235.48ZM98.9228 217.52C101.563 217.52 103.696 218.36 105.323 220.04C106.949 221.693 107.763 224.013 107.763 227V240H102.163V227.76C102.163 226 101.723 224.653 100.843 223.72C99.9628 222.76 98.7628 222.28 97.2428 222.28C95.6961 222.28 94.4695 222.76 93.5628 223.72C92.6828 224.653 92.2428 226 92.2428 227.76V240H86.6428V217.84H92.2428V220.6C92.9895 219.64 93.9361 218.893 95.0828 218.36C96.2561 217.8 97.5361 217.52 98.9228 217.52ZM121.768 217.48C123.421 217.48 124.875 217.813 126.128 218.48C127.381 219.12 128.368 219.96 129.088 221V217.84H134.728V240.16C134.728 242.213 134.315 244.04 133.488 245.64C132.661 247.267 131.421 248.547 129.768 249.48C128.115 250.44 126.115 250.92 123.768 250.92C120.621 250.92 118.035 250.187 116.008 248.72C114.008 247.253 112.875 245.253 112.608 242.72H118.168C118.461 243.733 119.088 244.533 120.048 245.12C121.035 245.733 122.221 246.04 123.608 246.04C125.235 246.04 126.555 245.547 127.568 244.56C128.581 243.6 129.088 242.133 129.088 240.16V236.72C128.368 237.76 127.368 238.627 126.088 239.32C124.835 240.013 123.395 240.36 121.768 240.36C119.901 240.36 118.195 239.88 116.648 238.92C115.101 237.96 113.875 236.613 112.968 234.88C112.088 233.12 111.648 231.107 111.648 228.84C111.648 226.6 112.088 224.613 112.968 222.88C113.875 221.147 115.088 219.813 116.608 218.88C118.155 217.947 119.875 217.48 121.768 217.48ZM129.088 228.92C129.088 227.56 128.821 226.4 128.288 225.44C127.755 224.453 127.035 223.707 126.128 223.2C125.221 222.667 124.248 222.4 123.208 222.4C122.168 222.4 121.208 222.653 120.328 223.16C119.448 223.667 118.728 224.413 118.168 225.4C117.635 226.36 117.368 227.507 117.368 228.84C117.368 230.173 117.635 231.347 118.168 232.36C118.728 233.347 119.448 234.107 120.328 234.64C121.235 235.173 122.195 235.44 123.208 235.44C124.248 235.44 125.221 235.187 126.128 234.68C127.035 234.147 127.755 233.4 128.288 232.44C128.821 231.453 129.088 230.28 129.088 228.92ZM148.678 240.36C146.864 240.36 145.238 240.04 143.798 239.4C142.358 238.733 141.211 237.84 140.358 236.72C139.531 235.6 139.078 234.36 138.998 233H144.638C144.744 233.853 145.158 234.56 145.878 235.12C146.624 235.68 147.544 235.96 148.638 235.96C149.704 235.96 150.531 235.747 151.118 235.32C151.731 234.893 152.038 234.347 152.038 233.68C152.038 232.96 151.664 232.427 150.918 232.08C150.198 231.707 149.038 231.307 147.438 230.88C145.784 230.48 144.424 230.067 143.358 229.64C142.318 229.213 141.411 228.56 140.638 227.68C139.891 226.8 139.518 225.613 139.518 224.12C139.518 222.893 139.864 221.773 140.558 220.76C141.278 219.747 142.291 218.947 143.598 218.36C144.931 217.773 146.491 217.48 148.278 217.48C150.918 217.48 153.024 218.147 154.598 219.48C156.171 220.787 157.038 222.56 157.198 224.8H151.838C151.758 223.92 151.384 223.227 150.718 222.72C150.078 222.187 149.211 221.92 148.118 221.92C147.104 221.92 146.318 222.107 145.758 222.48C145.224 222.853 144.958 223.373 144.958 224.04C144.958 224.787 145.331 225.36 146.078 225.76C146.824 226.133 147.984 226.52 149.558 226.92C151.158 227.32 152.478 227.733 153.518 228.16C154.558 228.587 155.451 229.253 156.198 230.16C156.971 231.04 157.371 232.213 157.398 233.68C157.398 234.96 157.038 236.107 156.318 237.12C155.624 238.133 154.611 238.933 153.278 239.52C151.971 240.08 150.438 240.36 148.678 240.36Z" fill="white"/>
</g>
<defs>
<linearGradient id="paint0_linear_308_108" x1="136" y1="23.5" x2="286" y2="300" gradientUnits="userSpaceOnUse">
<stop stop-color="#D9663C"/>
<stop offset="1" stop-color="#901010"/>
</linearGradient>
<clipPath id="clip0_308_108">
<rect width="317" height="300" fill="white"/>
</clipPath>
</defs>
</svg>
